<?xml version="1.0" standalone="no"?>
<!DOCTYPE svg PUBLIC "-//W3C//DTD SVG 20010904//EN"
 "http://www.w3.org/TR/2001/REC-SVG-20010904/DTD/svg10.dtd">
<svg version="1.0" xmlns="http://www.w3.org/2000/svg"
 width="256.000000pt" height="256.000000pt" viewBox="0 0 256.000000 256.000000"
 preserveAspectRatio="xMidYMid meet">

<g transform="translate(0.000000,256.000000) scale(0.100000,-0.100000)"
fill="#000000" stroke="none">
<path d="M1196 1984 c-22 -22 -20 -31 2 -11 20 19 48 22 57 8 3 -6 -7 -9 -22
-8 -24 2 -28 -2 -31 -26 -2 -18 -7 -25 -15 -20 -7 4 -6 0 2 -10 15 -19 26 -23
15 -5 -5 8 -2 9 9 5 27 -10 47 3 47 32 0 20 2 23 10 11 5 -8 10 -10 10 -4 0
16 -34 44 -53 44 -8 0 -23 -7 -31 -16z"/>
<path d="M1270 1932 c0 -6 -12 -18 -27 -26 -16 -8 -23 -15 -17 -16 18 0 60 37
52 46 -5 4 -8 2 -8 -4z"/>
<path d="M1075 1860 c-38 -5 -12 -6 73 -2 72 3 132 2 132 -2 0 -4 -18 -31 -40
-60 -22 -29 -40 -55 -40 -57 0 -2 44 -5 98 -7 271 -7 388 -56 453 -188 21 -44
24 -62 24 -169 0 -111 -2 -124 -27 -171 -74 -141 -215 -194 -514 -194 -247 0
-397 40 -474 127 -46 53 -67 111 -76 215 -5 63 -10 79 -25 83 -10 3 -30 20
-44 37 -22 26 -25 38 -20 67 16 84 77 170 159 223 33 21 55 38 51 38 -18 0
-106 -64 -139 -100 -95 -106 -133 -293 -91 -455 31 -118 119 -226 228 -279
117 -57 193 -70 427 -70 234 0 310 13 427 70 177 86 278 295 246 504 -32 202
-170 332 -402 376 -88 17 -341 25 -426 14z"/>
<path d="M973 1843 c9 -2 23 -2 30 0 6 3 -1 5 -18 5 -16 0 -22 -2 -12 -5z"/>
<path d="M918 1833 c6 -2 18 -2 25 0 6 3 1 5 -13 5 -14 0 -19 -2 -12 -5z"/>
<path d="M878 1823 c7 -3 16 -2 19 1 4 3 -2 6 -13 5 -11 0 -14 -3 -6 -6z"/>
<path d="M830 1810 c-8 -5 -10 -10 -5 -10 6 0 17 5 25 10 8 5 11 10 5 10 -5 0
-17 -5 -25 -10z"/>
<path d="M2021 1609 c1 -41 3 -66 6 -56 3 10 10 16 16 14 16 -5 16 -139 0
-144 -7 -3 -16 13 -21 39 -8 35 -10 19 -11 -93 -1 -75 2 -139 5 -142 4 -3 16
6 28 21 19 24 21 41 24 203 l4 176 -26 28 -26 28 1 -74z"/>
<path d="M422 1661 c-15 -9 -32 -72 -31 -116 1 -26 2 -24 11 12 6 28 16 44 28
48 14 4 20 15 20 36 0 30 -6 34 -28 20z"/>
<path d="M1525 1543 c-43 -8 -50 -16 -20 -22 24 -5 31 -12 33 -34 5 -38 -15
-59 -52 -55 -21 2 -34 11 -43 27 -11 24 -12 24 -18 -11 -5 -25 -2 -47 10 -72
l17 -35 78 3 c46 1 85 7 94 15 22 19 38 84 27 113 -17 45 -78 79 -126 71z"/>
<path d="M908 1523 c28 -20 30 -68 3 -83 -33 -17 -61 -12 -73 15 -8 19 -14 22
-20 13 -12 -20 -9 -70 6 -97 19 -35 46 -39 135 -23 62 11 81 30 81 80 0 69
-42 112 -110 111 -44 0 -44 0 -22 -16z"/>
<path d="M1449 1503 c-13 -16 -12 -17 4 -4 9 7 17 15 17 17 0 8 -8 3 -21 -13z"/>
<path d="M401 1369 c-1 -87 7 -123 30 -137 18 -12 19 -8 18 95 0 60 -3 102 -6
96 -2 -7 -11 -13 -18 -13 -7 0 -16 6 -18 13 -3 6 -6 -18 -6 -54z"/>
<path d="M1275 1228 c-8 -20 -69 -25 -80 -8 -8 13 -25 13 -25 1 0 -20 33 -41
64 -41 37 0 60 20 53 47 -4 17 -4 17 -12 1z"/>
<path d="M1360 780 c-36 -4 -105 -9 -155 -10 -86 -3 -83 -3 55 -12 93 -5 153
-5 168 2 23 10 31 31 10 28 -7 0 -42 -4 -78 -8z"/>
<path d="M1033 773 c15 -2 39 -2 55 0 15 2 2 4 -28 4 -30 0 -43 -2 -27 -4z"/>
<path d="M911 701 c-51 -47 -84 -133 -85 -215 0 -39 5 -80 12 -91 9 -16 10 -7
5 48 -8 95 17 184 68 240 22 22 39 42 39 44 0 8 -10 1 -39 -26z"/>
<path d="M1528 672 c11 -38 16 -93 15 -163 -1 -96 1 -108 21 -134 15 -18 27
-25 35 -20 22 13 41 72 41 127 -1 81 -61 212 -110 238 -17 9 -17 7 -2 -48z
m73 -100 c18 -91 -5 -85 -35 8 -32 100 -32 113 -1 75 14 -16 30 -54 36 -83z"/>
<path d="M1175 655 c-14 -13 -25 -30 -25 -37 1 -7 7 -1 16 14 8 15 25 30 37
32 12 3 31 7 42 9 12 3 6 5 -13 6 -23 1 -41 -7 -57 -24z"/>
<path d="M893 534 c-21 -99 -16 -144 14 -126 8 5 10 34 5 97 l-7 90 -12 -61z"/>
<path d="M1150 443 c0 -16 -3 -39 -7 -53 -8 -35 9 -16 22 23 13 41 25 41 39 0
6 -17 15 -35 19 -39 4 -5 5 -1 2 8 -9 24 3 42 19 29 16 -14 26 -4 26 26 0 43
19 23 22 -24 3 -52 25 -71 30 -26 2 16 8 27 16 25 7 -1 12 9 12 28 0 30 -1 30
-55 30 -44 0 -53 -3 -49 -15 4 -10 0 -15 -11 -15 -11 0 -15 5 -11 15 4 12 -3
15 -34 15 -37 0 -40 -2 -40 -27z"/>
<path d="M1181 384 c0 -11 3 -14 6 -6 3 7 2 16 -1 19 -3 4 -6 -2 -5 -13z"/>
<path d="M1160 345 c-12 -14 -2 -15 85 -13 71 2 100 7 103 16 3 11 1 11 -17 0
-17 -10 -25 -10 -41 0 -11 7 -20 8 -20 3 0 -11 -56 -9 -66 2 -12 12 -31 8 -44
-8z"/>
<path d="M1368 203 c-31 -21 -53 -26 -125 -30 -50 -3 -105 -1 -127 5 -31 9
-37 9 -27 -1 18 -18 211 -21 401 -7 249 18 274 28 76 29 -148 1 -167 3 -156
16 19 22 0 17 -42 -12z"/>
</g>
</svg>
